<svg width="440" height="64" viewBox="0 0 440 64" fill="none" xmlns="http://www.w3.org/2000/svg">
<g clip-path="url(#clip0_110_1724)">
<rect x="0.5" y="0.5" width="199" height="63" rx="31.5" stroke="#665F55"/>
<path d="M23.7558 17.2031C23.3933 17.573 23.1836 18.149 23.1836 18.8948V45.4995C23.1836 46.2454 23.3933 46.8213 23.7558 47.1913L23.8453 47.2725L39.1359 32.3701V32.0182L23.8453 17.1159L23.7558 17.2031Z" fill="#403F3D"/>
<path d="M46.0776 37.34L40.9863 32.3701V32.0182L46.0837 27.0482L46.1979 27.1129L52.2345 30.4618C53.9573 31.4122 53.9573 32.9761 52.2345 33.9325L46.1979 37.2754L46.0776 37.34Z" fill="#403F3D"/>
<path d="M45.2733 38.2008L40.0617 33.1196L24.6816 48.1167C25.2538 48.7031 26.187 48.7738 27.2481 48.1873L45.2733 38.2008Z" fill="#403F3D"/>
<path d="M45.2733 26.1876L27.2481 16.201C26.187 15.6206 25.2538 15.6913 24.6816 16.2777L40.0617 31.2688L45.2733 26.1876Z" fill="#403F3D"/>
<path d="M65.9765 23H64.5702L67.1306 15.7273H68.757L71.3209 23H69.9147L67.9722 17.2188H67.9154L65.9765 23ZM66.0226 20.1484H69.8579V21.2067H66.0226V20.1484ZM76.4106 17.5455L74.4681 23H73.0477L71.1052 17.5455H72.4759L73.7295 21.5973H73.7863L75.0434 17.5455H76.4106ZM78.7135 23.1101C78.3679 23.1101 78.0566 23.0485 77.7796 22.9254C77.5049 22.8 77.2871 22.6153 77.1262 22.3714C76.9675 22.1276 76.8882 21.8269 76.8882 21.4695C76.8882 21.1617 76.945 20.9072 77.0587 20.706C77.1723 20.5047 77.3274 20.3438 77.5239 20.223C77.7204 20.1023 77.9417 20.0111 78.1879 19.9496C78.4365 19.8857 78.6934 19.8395 78.9585 19.8111C79.2781 19.7779 79.5374 19.7483 79.7362 19.7223C79.9351 19.6939 80.0795 19.6513 80.1695 19.5945C80.2618 19.5353 80.308 19.4441 80.308 19.321V19.2997C80.308 19.0322 80.2287 18.825 80.07 18.6783C79.9114 18.5315 79.683 18.4581 79.3847 18.4581C79.0698 18.4581 78.82 18.5268 78.6354 18.6641C78.4531 18.8014 78.33 18.9635 78.2661 19.1506L77.0658 18.9801C77.1605 18.6487 77.3167 18.3717 77.5345 18.1491C77.7523 17.9242 78.0187 17.7562 78.3335 17.6449C78.6484 17.5312 78.9964 17.4744 79.3776 17.4744C79.6404 17.4744 79.902 17.5052 80.1624 17.5668C80.4228 17.6283 80.6607 17.7301 80.8762 17.8722C81.0916 18.0118 81.2644 18.2024 81.3946 18.4439C81.5272 18.6854 81.5935 18.9872 81.5935 19.3494V23H80.3577V22.2507H80.3151C80.2369 22.4022 80.1269 22.5443 79.9848 22.6768C79.8451 22.8071 79.6688 22.9124 79.4557 22.9929C79.245 23.071 78.9976 23.1101 78.7135 23.1101ZM79.0473 22.1655C79.3054 22.1655 79.5291 22.1146 79.7185 22.0128C79.9079 21.9086 80.0535 21.7713 80.1553 21.6009C80.2594 21.4304 80.3115 21.2446 80.3115 21.0433V20.4006C80.2713 20.4337 80.2026 20.4645 80.1056 20.4929C80.0109 20.5213 79.9043 20.5462 79.786 20.5675C79.6676 20.5888 79.5504 20.6077 79.4344 20.6243C79.3184 20.6409 79.2178 20.6551 79.1325 20.6669C78.9408 20.6929 78.7691 20.7356 78.6176 20.7947C78.4661 20.8539 78.3466 20.9368 78.259 21.0433C78.1714 21.1475 78.1276 21.2824 78.1276 21.4482C78.1276 21.6849 78.214 21.8636 78.3868 21.9844C78.5596 22.1051 78.7798 22.1655 79.0473 22.1655ZM82.8861 23V17.5455H84.1716V23H82.8861ZM83.5324 16.7713C83.3288 16.7713 83.1536 16.7038 83.0068 16.5689C82.8601 16.4316 82.7867 16.267 82.7867 16.0753C82.7867 15.8812 82.8601 15.7166 83.0068 15.5817C83.1536 15.4444 83.3288 15.3757 83.5324 15.3757C83.7384 15.3757 83.9136 15.4444 84.058 15.5817C84.2048 15.7166 84.2781 15.8812 84.2781 16.0753C84.2781 16.267 84.2048 16.4316 84.058 16.5689C83.9136 16.7038 83.7384 16.7713 83.5324 16.7713ZM86.779 15.7273V23H85.4935V15.7273H86.779ZM89.6705 23.1101C89.3249 23.1101 89.0136 23.0485 88.7366 22.9254C88.462 22.8 88.2442 22.6153 88.0832 22.3714C87.9246 22.1276 87.8453 21.8269 87.8453 21.4695C87.8453 21.1617 87.9021 20.9072 88.0157 20.706C88.1294 20.5047 88.2844 20.3438 88.4809 20.223C88.6774 20.1023 88.8988 20.0111 89.145 19.9496C89.3936 19.8857 89.6504 19.8395 89.9156 19.8111C90.2352 19.7779 90.4944 19.7483 90.6933 19.7223C90.8921 19.6939 91.0365 19.6513 91.1265 19.5945C91.2188 19.5353 91.265 19.4441 91.265 19.321V19.2997C91.265 19.0322 91.1857 18.825 91.0271 18.6783C90.8685 18.5315 90.64 18.4581 90.3417 18.4581C90.0268 18.4581 89.7771 18.5268 89.5924 18.6641C89.4101 18.8014 89.287 18.9635 89.2231 19.1506L88.0228 18.9801C88.1175 18.6487 88.2738 18.3717 88.4916 18.1491C88.7094 17.9242 88.9757 17.7562 89.2906 17.6449C89.6054 17.5312 89.9535 17.4744 90.3346 17.4744C90.5974 17.4744 90.859 17.5052 91.1194 17.5668C91.3798 17.6283 91.6177 17.7301 91.8332 17.8722C92.0486 18.0118 92.2214 18.2024 92.3517 18.4439C92.4842 18.6854 92.5505 18.9872 92.5505 19.3494V23H91.3147V22.2507H91.2721C91.194 22.4022 91.0839 22.5443 90.9419 22.6768C90.8022 22.8071 90.6258 22.9124 90.4127 22.9929C90.202 23.071 89.9546 23.1101 89.6705 23.1101ZM90.0044 22.1655C90.2624 22.1655 90.4861 22.1146 90.6755 22.0128C90.8649 21.9086 91.0105 21.7713 91.1123 21.6009C91.2165 21.4304 91.2686 21.2446 91.2686 21.0433V20.4006C91.2283 20.4337 91.1597 20.4645 91.0626 20.4929C90.9679 20.5213 90.8614 20.5462 90.743 20.5675C90.6246 20.5888 90.5074 20.6077 90.3914 20.6243C90.2754 20.6409 90.1748 20.6551 90.0896 20.6669C89.8978 20.6929 89.7262 20.7356 89.5747 20.7947C89.4231 20.8539 89.3036 20.9368 89.216 21.0433C89.1284 21.1475 89.0846 21.2824 89.0846 21.4482C89.0846 21.6849 89.171 21.8636 89.3438 21.9844C89.5167 22.1051 89.7368 22.1655 90.0044 22.1655ZM93.8999 23V15.7273H95.1855V18.4474H95.2387C95.305 18.3149 95.3985 18.174 95.5193 18.0249C95.64 17.8733 95.8034 17.7443 96.0093 17.6378C96.2153 17.5289 96.4781 17.4744 96.7977 17.4744C97.2191 17.4744 97.599 17.5821 97.9376 17.7976C98.2785 18.0107 98.5484 18.3267 98.7472 18.7457C98.9485 19.1624 99.0491 19.6738 99.0491 20.2798C99.0491 20.8788 98.9508 21.3878 98.7544 21.8068C98.5579 22.2259 98.2903 22.5455 97.9518 22.7656C97.6133 22.9858 97.2297 23.0959 96.8012 23.0959C96.4887 23.0959 96.2295 23.0438 96.0235 22.9396C95.8176 22.8355 95.6518 22.71 95.5264 22.5632C95.4033 22.4141 95.3074 22.2732 95.2387 22.1406H95.1642V23H93.8999ZM95.1606 20.2727C95.1606 20.6255 95.2103 20.9344 95.3097 21.1996C95.4115 21.4647 95.5571 21.6719 95.7465 21.821C95.9383 21.9678 96.1703 22.0412 96.4426 22.0412C96.7267 22.0412 96.9646 21.9654 97.1563 21.8139C97.3481 21.66 97.4925 21.4505 97.5896 21.1854C97.689 20.9179 97.7387 20.6136 97.7387 20.2727C97.7387 19.9342 97.6902 19.6335 97.5931 19.3707C97.4961 19.108 97.3517 18.902 97.1599 18.7528C96.9681 18.6037 96.729 18.5291 96.4426 18.5291C96.1679 18.5291 95.9347 18.6013 95.743 18.7457C95.5512 18.8902 95.4056 19.0926 95.3062 19.353C95.2091 19.6134 95.1606 19.92 95.1606 20.2727ZM101.427 15.7273V23H100.142V15.7273H101.427ZM105.164 23.1065C104.617 23.1065 104.145 22.9929 103.747 22.7656C103.352 22.536 103.048 22.2116 102.835 21.7926C102.622 21.3712 102.515 20.8752 102.515 20.3047C102.515 19.7436 102.622 19.2512 102.835 18.8274C103.05 18.4013 103.351 18.0698 103.737 17.8331C104.122 17.594 104.576 17.4744 105.097 17.4744C105.433 17.4744 105.75 17.5289 106.048 17.6378C106.349 17.7443 106.614 17.91 106.844 18.1349C107.076 18.3598 107.258 18.6463 107.391 18.9943C107.523 19.34 107.59 19.7519 107.59 20.2301V20.6243H103.119V19.7578H106.357C106.355 19.5116 106.302 19.2926 106.198 19.1009C106.093 18.9067 105.948 18.754 105.761 18.6428C105.576 18.5315 105.361 18.4759 105.114 18.4759C104.852 18.4759 104.621 18.5398 104.422 18.6676C104.223 18.7931 104.068 18.9588 103.957 19.1648C103.848 19.3684 103.792 19.5921 103.79 19.8359V20.5923C103.79 20.9096 103.848 21.1818 103.964 21.4091C104.08 21.634 104.242 21.8068 104.45 21.9276C104.659 22.0459 104.903 22.1051 105.182 22.1051C105.369 22.1051 105.538 22.0791 105.69 22.027C105.841 21.9725 105.973 21.8932 106.084 21.7891C106.195 21.6849 106.279 21.5559 106.336 21.402L107.536 21.5369C107.461 21.8542 107.316 22.1312 107.103 22.3679C106.892 22.6023 106.622 22.7846 106.293 22.9148C105.964 23.0426 105.588 23.1065 105.164 23.1065ZM113.537 23.1065C113.004 23.1065 112.543 22.9893 112.152 22.755C111.761 22.5206 111.458 22.1927 111.243 21.7713C111.03 21.3499 110.923 20.8575 110.923 20.294C110.923 19.7306 111.03 19.237 111.243 18.8132C111.458 18.3894 111.761 18.0604 112.152 17.826C112.543 17.5916 113.004 17.4744 113.537 17.4744C114.07 17.4744 114.531 17.5916 114.922 17.826C115.312 18.0604 115.614 18.3894 115.827 18.8132C116.043 19.237 116.15 19.7306 116.15 20.294C116.15 20.8575 116.043 21.3499 115.827 21.7713C115.614 22.1927 115.312 22.5206 114.922 22.755C114.531 22.9893 114.07 23.1065 113.537 23.1065ZM113.544 22.0767C113.833 22.0767 114.074 21.9974 114.268 21.8388C114.463 21.6778 114.607 21.4624 114.702 21.1925C114.799 20.9226 114.847 20.6219 114.847 20.2905C114.847 19.9567 114.799 19.6548 114.702 19.3849C114.607 19.1127 114.463 18.8961 114.268 18.7351C114.074 18.5741 113.833 18.4936 113.544 18.4936C113.248 18.4936 113.002 18.5741 112.805 18.7351C112.611 18.8961 112.466 19.1127 112.369 19.3849C112.274 19.6548 112.226 19.9567 112.226 20.2905C112.226 20.6219 112.274 20.9226 112.369 21.1925C112.466 21.4624 112.611 21.6778 112.805 21.8388C113.002 21.9974 113.248 22.0767 113.544 22.0767ZM118.527 19.804V23H117.242V17.5455H118.47V18.4723H118.534C118.66 18.1669 118.86 17.9242 119.134 17.7443C119.411 17.5644 119.753 17.4744 120.161 17.4744C120.537 17.4744 120.865 17.5549 121.144 17.7159C121.426 17.8769 121.644 18.1101 121.798 18.4155C121.954 18.7209 122.031 19.0914 122.028 19.527V23H120.743V19.7259C120.743 19.3613 120.648 19.076 120.459 18.87C120.272 18.6641 120.013 18.5611 119.681 18.5611C119.456 18.5611 119.256 18.6108 119.081 18.7102C118.908 18.8073 118.772 18.9482 118.673 19.1328C118.576 19.3175 118.527 19.5412 118.527 19.804Z" fill="#403F3D"/>
<path d="M72.9432 38.0795C72.8485 37.7727 72.7178 37.4981 72.5511 37.2557C72.3883 37.0095 72.1913 36.7992 71.9602 36.625C71.733 36.4508 71.4716 36.3201 71.1761 36.233C70.8807 36.142 70.5587 36.0966 70.2102 36.0966C69.5852 36.0966 69.0284 36.2538 68.5398 36.5682C68.0511 36.8826 67.6667 37.3447 67.3864 37.9545C67.1098 38.5606 66.9716 39.2992 66.9716 40.1705C66.9716 41.0492 67.1098 41.7936 67.3864 42.4034C67.6629 43.0133 68.0473 43.4773 68.5398 43.7955C69.0322 44.1098 69.6042 44.267 70.2557 44.267C70.8466 44.267 71.358 44.1534 71.7898 43.9261C72.2254 43.6989 72.5606 43.3769 72.7955 42.9602C73.0303 42.5398 73.1477 42.0473 73.1477 41.483L73.625 41.5568H70.4659V39.9091H75.1875V41.3068C75.1875 42.303 74.9754 43.1648 74.5511 43.892C74.1269 44.6193 73.5436 45.1799 72.8011 45.5739C72.0587 45.964 71.2064 46.1591 70.2443 46.1591C69.1723 46.1591 68.2311 45.9186 67.4205 45.4375C66.6136 44.9527 65.983 44.2652 65.5284 43.375C65.0777 42.4811 64.8523 41.4205 64.8523 40.1932C64.8523 39.2538 64.9848 38.4148 65.25 37.6761C65.5189 36.9375 65.8939 36.3106 66.375 35.7955C66.8561 35.2765 67.4205 34.8826 68.0682 34.6136C68.7159 34.3409 69.4205 34.2045 70.1818 34.2045C70.8258 34.2045 71.4261 34.2992 71.983 34.4886C72.5398 34.6742 73.0341 34.9394 73.4659 35.2841C73.9015 35.6288 74.2595 36.0379 74.5398 36.5114C74.8201 36.9848 75.0038 37.5076 75.0909 38.0795H72.9432ZM80.9418 46.1705C80.0895 46.1705 79.3509 45.983 78.7259 45.608C78.1009 45.233 77.616 44.7083 77.2713 44.0341C76.9304 43.3598 76.7599 42.572 76.7599 41.6705C76.7599 40.7689 76.9304 39.9792 77.2713 39.3011C77.616 38.6231 78.1009 38.0966 78.7259 37.7216C79.3509 37.3466 80.0895 37.1591 80.9418 37.1591C81.794 37.1591 82.5327 37.3466 83.1577 37.7216C83.7827 38.0966 84.2656 38.6231 84.6065 39.3011C84.9512 39.9792 85.1236 40.7689 85.1236 41.6705C85.1236 42.572 84.9512 43.3598 84.6065 44.0341C84.2656 44.7083 83.7827 45.233 83.1577 45.608C82.5327 45.983 81.794 46.1705 80.9418 46.1705ZM80.9531 44.5227C81.4152 44.5227 81.8016 44.3958 82.1122 44.142C82.4228 43.8845 82.6539 43.5398 82.8054 43.108C82.9607 42.6761 83.0384 42.1951 83.0384 41.6648C83.0384 41.1307 82.9607 40.6477 82.8054 40.2159C82.6539 39.7803 82.4228 39.4337 82.1122 39.1761C81.8016 38.9186 81.4152 38.7898 80.9531 38.7898C80.4796 38.7898 80.0857 38.9186 79.7713 39.1761C79.4607 39.4337 79.2277 39.7803 79.0724 40.2159C78.9209 40.6477 78.8452 41.1307 78.8452 41.6648C78.8452 42.1951 78.9209 42.6761 79.0724 43.108C79.2277 43.5398 79.4607 43.8845 79.7713 44.142C80.0857 44.3958 80.4796 44.5227 80.9531 44.5227ZM90.6761 46.1705C89.8239 46.1705 89.0852 45.983 88.4602 45.608C87.8352 45.233 87.3504 44.7083 87.0057 44.0341C86.6648 43.3598 86.4943 42.572 86.4943 41.6705C86.4943 40.7689 86.6648 39.9792 87.0057 39.3011C87.3504 38.6231 87.8352 38.0966 88.4602 37.7216C89.0852 37.3466 89.8239 37.1591 90.6761 37.1591C91.5284 37.1591 92.267 37.3466 92.892 37.7216C93.517 38.0966 94 38.6231 94.3409 39.3011C94.6856 39.9792 94.858 40.7689 94.858 41.6705C94.858 42.572 94.6856 43.3598 94.3409 44.0341C94 44.7083 93.517 45.233 92.892 45.608C92.267 45.983 91.5284 46.1705 90.6761 46.1705ZM90.6875 44.5227C91.1496 44.5227 91.536 44.3958 91.8466 44.142C92.1572 43.8845 92.3883 43.5398 92.5398 43.108C92.6951 42.6761 92.7727 42.1951 92.7727 41.6648C92.7727 41.1307 92.6951 40.6477 92.5398 40.2159C92.3883 39.7803 92.1572 39.4337 91.8466 39.1761C91.536 38.9186 91.1496 38.7898 90.6875 38.7898C90.214 38.7898 89.8201 38.9186 89.5057 39.1761C89.1951 39.4337 88.9621 39.7803 88.8068 40.2159C88.6553 40.6477 88.5795 41.1307 88.5795 41.6648C88.5795 42.1951 88.6553 42.6761 88.8068 43.108C88.9621 43.5398 89.1951 43.8845 89.5057 44.142C89.8201 44.3958 90.214 44.5227 90.6875 44.5227ZM100.399 49.4545C99.6605 49.4545 99.026 49.3542 98.4957 49.1534C97.9654 48.9564 97.5393 48.6913 97.2173 48.358C96.8954 48.0246 96.6719 47.6553 96.5469 47.25L98.3991 46.8011C98.4825 46.9716 98.6037 47.1402 98.7628 47.3068C98.9219 47.4773 99.1359 47.6174 99.4048 47.7273C99.6776 47.8409 100.02 47.8977 100.433 47.8977C101.017 47.8977 101.5 47.7557 101.882 47.4716C102.265 47.1913 102.456 46.7292 102.456 46.0852V44.4318H102.354C102.248 44.6439 102.092 44.8617 101.888 45.0852C101.687 45.3087 101.42 45.4962 101.087 45.6477C100.757 45.7992 100.342 45.875 99.8423 45.875C99.1719 45.875 98.5639 45.7178 98.0185 45.4034C97.4768 45.0852 97.045 44.6117 96.723 43.983C96.4048 43.3504 96.2457 42.5587 96.2457 41.608C96.2457 40.6496 96.4048 39.8409 96.723 39.1818C97.045 38.5189 97.4787 38.017 98.0241 37.6761C98.5696 37.3314 99.1776 37.1591 99.848 37.1591C100.359 37.1591 100.78 37.2462 101.109 37.4205C101.443 37.5909 101.708 37.7973 101.905 38.0398C102.102 38.2784 102.251 38.5038 102.354 38.7159H102.467V37.2727H104.496V46.142C104.496 46.8883 104.318 47.5057 103.962 47.9943C103.606 48.483 103.119 48.8485 102.501 49.0909C101.884 49.3333 101.183 49.4545 100.399 49.4545ZM100.416 44.2614C100.852 44.2614 101.223 44.1553 101.53 43.9432C101.837 43.7311 102.07 43.4261 102.229 43.0284C102.388 42.6307 102.467 42.1534 102.467 41.5966C102.467 41.0473 102.388 40.5663 102.229 40.1534C102.073 39.7405 101.842 39.4205 101.536 39.1932C101.232 38.9621 100.859 38.8466 100.416 38.8466C99.9579 38.8466 99.5753 38.9659 99.2685 39.2045C98.9616 39.4432 98.7306 39.7708 98.5753 40.1875C98.42 40.6004 98.3423 41.0701 98.3423 41.5966C98.3423 42.1307 98.42 42.5985 98.5753 43C98.7344 43.3977 98.9673 43.7083 99.2741 43.9318C99.5848 44.1515 99.9654 44.2614 100.416 44.2614ZM108.661 34.3636V46H106.604V34.3636H108.661ZM114.639 46.1705C113.764 46.1705 113.009 45.9886 112.372 45.625C111.74 45.2576 111.253 44.7386 110.912 44.0682C110.571 43.3939 110.401 42.6004 110.401 41.6875C110.401 40.7898 110.571 40.0019 110.912 39.3239C111.257 38.642 111.738 38.1117 112.355 37.733C112.973 37.3504 113.698 37.1591 114.531 37.1591C115.069 37.1591 115.577 37.2462 116.054 37.4205C116.535 37.5909 116.959 37.8561 117.327 38.2159C117.698 38.5758 117.99 39.0341 118.202 39.5909C118.414 40.1439 118.52 40.803 118.52 41.5682V42.1989H111.366V40.8125H116.548C116.545 40.4186 116.459 40.0682 116.293 39.7614C116.126 39.4508 115.893 39.2064 115.594 39.0284C115.298 38.8504 114.954 38.7614 114.56 38.7614C114.139 38.7614 113.77 38.8636 113.452 39.0682C113.134 39.2689 112.885 39.5341 112.707 39.8636C112.533 40.1894 112.444 40.5473 112.44 40.9375V42.1477C112.44 42.6553 112.533 43.0909 112.719 43.4545C112.904 43.8144 113.164 44.0909 113.497 44.2841C113.83 44.4735 114.221 44.5682 114.668 44.5682C114.967 44.5682 115.238 44.5265 115.48 44.4432C115.723 44.3561 115.933 44.2292 116.111 44.0625C116.289 43.8958 116.423 43.6894 116.514 43.4432L118.435 43.6591C118.313 44.1667 118.082 44.6098 117.741 44.9886C117.404 45.3636 116.973 45.6553 116.446 45.8636C115.92 46.0682 115.317 46.1705 114.639 46.1705ZM124.32 46V34.3636H128.683C129.577 34.3636 130.327 34.5303 130.933 34.8636C131.543 35.197 132.003 35.6553 132.314 36.2386C132.628 36.8182 132.786 37.4773 132.786 38.2159C132.786 38.9621 132.628 39.625 132.314 40.2045C132 40.7841 131.536 41.2405 130.922 41.5739C130.308 41.9034 129.553 42.0682 128.655 42.0682H125.763V40.3352H128.371C128.893 40.3352 129.321 40.2443 129.655 40.0625C129.988 39.8807 130.234 39.6307 130.393 39.3125C130.556 38.9943 130.638 38.6288 130.638 38.2159C130.638 37.803 130.556 37.4394 130.393 37.125C130.234 36.8106 129.986 36.5663 129.649 36.392C129.316 36.214 128.886 36.125 128.359 36.125H126.428V46H124.32ZM136.582 34.3636V46H134.526V34.3636H136.582ZM141.209 46.1761C140.656 46.1761 140.158 46.0777 139.714 45.8807C139.275 45.6799 138.927 45.3845 138.669 44.9943C138.415 44.6042 138.288 44.1231 138.288 43.5511C138.288 43.0587 138.379 42.6515 138.561 42.3295C138.743 42.0076 138.991 41.75 139.305 41.5568C139.62 41.3636 139.974 41.2178 140.368 41.1193C140.766 41.017 141.177 40.9432 141.601 40.8977C142.112 40.8447 142.527 40.7973 142.845 40.7557C143.163 40.7102 143.394 40.642 143.538 40.5511C143.686 40.4564 143.76 40.3106 143.76 40.1136V40.0795C143.76 39.6515 143.633 39.3201 143.379 39.0852C143.125 38.8504 142.76 38.733 142.283 38.733C141.779 38.733 141.379 38.8428 141.084 39.0625C140.792 39.2822 140.595 39.5417 140.493 39.8409L138.572 39.5682C138.724 39.0379 138.974 38.5947 139.322 38.2386C139.671 37.8788 140.097 37.6098 140.601 37.4318C141.105 37.25 141.661 37.1591 142.271 37.1591C142.692 37.1591 143.11 37.2083 143.527 37.3068C143.944 37.4053 144.324 37.5682 144.669 37.7955C145.014 38.0189 145.29 38.3239 145.499 38.7102C145.711 39.0966 145.817 39.5795 145.817 40.1591V46H143.839V44.8011H143.771C143.646 45.0436 143.47 45.2708 143.243 45.483C143.019 45.6913 142.737 45.8598 142.396 45.9886C142.059 46.1136 141.663 46.1761 141.209 46.1761ZM141.743 44.6648C142.156 44.6648 142.514 44.5833 142.817 44.4205C143.12 44.2538 143.353 44.0341 143.516 43.7614C143.682 43.4886 143.766 43.1913 143.766 42.8693V41.8409C143.701 41.8939 143.591 41.9432 143.436 41.9886C143.285 42.0341 143.114 42.0739 142.925 42.108C142.735 42.142 142.548 42.1723 142.362 42.1989C142.177 42.2254 142.016 42.2481 141.879 42.267C141.572 42.3087 141.298 42.3769 141.055 42.4716C140.813 42.5663 140.622 42.6989 140.482 42.8693C140.341 43.036 140.271 43.2519 140.271 43.517C140.271 43.8958 140.41 44.1818 140.686 44.375C140.963 44.5682 141.315 44.6648 141.743 44.6648ZM148.851 49.2727C148.571 49.2727 148.311 49.25 148.072 49.2045C147.838 49.1629 147.65 49.1136 147.51 49.0568L147.987 47.4545C148.286 47.5417 148.554 47.5833 148.788 47.5795C149.023 47.5758 149.23 47.5019 149.408 47.358C149.589 47.2178 149.743 46.983 149.868 46.6534L150.044 46.1818L146.879 37.2727H149.061L151.072 43.8636H151.163L153.18 37.2727H155.368L151.874 47.0568C151.711 47.5189 151.495 47.9148 151.226 48.2443C150.957 48.5777 150.627 48.8314 150.237 49.0057C149.851 49.1837 149.389 49.2727 148.851 49.2727Z" fill="#403F3D"/>
<rect x="240" width="200" height="64" rx="32" fill="#665F55"/>
<path d="M263.756 17.2031C263.393 17.573 263.184 18.149 263.184 18.8948V45.4995C263.184 46.2454 263.393 46.8213 263.756 47.1913L263.845 47.2725L279.136 32.3701V32.0182L263.845 17.1159L263.756 17.2031Z" fill="#E1D4C9"/>
<path d="M286.078 37.34L280.986 32.3701V32.0182L286.084 27.0482L286.198 27.1129L292.235 30.4618C293.957 31.4122 293.957 32.9761 292.235 33.9325L286.198 37.2754L286.078 37.34Z" fill="#E1D4C9"/>
<path d="M285.273 38.2008L280.062 33.1196L264.682 48.1167C265.254 48.7031 266.187 48.7738 267.248 48.1873L285.273 38.2008Z" fill="#E1D4C9"/>
<path d="M285.273 26.1876L267.248 16.201C266.187 15.6206 265.254 15.6913 264.682 16.2777L280.062 31.2688L285.273 26.1876Z" fill="#E1D4C9"/>
<path d="M305.976 23H304.57L307.131 15.7273H308.757L311.321 23H309.915L307.972 17.2188H307.915L305.976 23ZM306.023 20.1484H309.858V21.2067H306.023V20.1484ZM316.411 17.5455L314.468 23H313.048L311.105 17.5455H312.476L313.729 21.5973H313.786L315.043 17.5455H316.411ZM318.714 23.1101C318.368 23.1101 318.057 23.0485 317.78 22.9254C317.505 22.8 317.287 22.6153 317.126 22.3714C316.968 22.1276 316.888 21.8269 316.888 21.4695C316.888 21.1617 316.945 20.9072 317.059 20.706C317.172 20.5047 317.327 20.3438 317.524 20.223C317.72 20.1023 317.942 20.0111 318.188 19.9496C318.437 19.8857 318.693 19.8395 318.959 19.8111C319.278 19.7779 319.537 19.7483 319.736 19.7223C319.935 19.6939 320.08 19.6513 320.169 19.5945C320.262 19.5353 320.308 19.4441 320.308 19.321V19.2997C320.308 19.0322 320.229 18.825 320.07 18.6783C319.911 18.5315 319.683 18.4581 319.385 18.4581C319.07 18.4581 318.82 18.5268 318.635 18.6641C318.453 18.8014 318.33 18.9635 318.266 19.1506L317.066 18.9801C317.16 18.6487 317.317 18.3717 317.535 18.1491C317.752 17.9242 318.019 17.7562 318.334 17.6449C318.648 17.5312 318.996 17.4744 319.378 17.4744C319.64 17.4744 319.902 17.5052 320.162 17.5668C320.423 17.6283 320.661 17.7301 320.876 17.8722C321.092 18.0118 321.264 18.2024 321.395 18.4439C321.527 18.6854 321.593 18.9872 321.593 19.3494V23H320.358V22.2507H320.315C320.237 22.4022 320.127 22.5443 319.985 22.6768C319.845 22.8071 319.669 22.9124 319.456 22.9929C319.245 23.071 318.998 23.1101 318.714 23.1101ZM319.047 22.1655C319.305 22.1655 319.529 22.1146 319.718 22.0128C319.908 21.9086 320.053 21.7713 320.155 21.6009C320.259 21.4304 320.312 21.2446 320.312 21.0433V20.4006C320.271 20.4337 320.203 20.4645 320.106 20.4929C320.011 20.5213 319.904 20.5462 319.786 20.5675C319.668 20.5888 319.55 20.6077 319.434 20.6243C319.318 20.6409 319.218 20.6551 319.133 20.6669C318.941 20.6929 318.769 20.7356 318.618 20.7947C318.466 20.8539 318.347 20.9368 318.259 21.0433C318.171 21.1475 318.128 21.2824 318.128 21.4482C318.128 21.6849 318.214 21.8636 318.387 21.9844C318.56 22.1051 318.78 22.1655 319.047 22.1655ZM322.886 23V17.5455H324.172V23H322.886ZM323.532 16.7713C323.329 16.7713 323.154 16.7038 323.007 16.5689C322.86 16.4316 322.787 16.267 322.787 16.0753C322.787 15.8812 322.86 15.7166 323.007 15.5817C323.154 15.4444 323.329 15.3757 323.532 15.3757C323.738 15.3757 323.914 15.4444 324.058 15.5817C324.205 15.7166 324.278 15.8812 324.278 16.0753C324.278 16.267 324.205 16.4316 324.058 16.5689C323.914 16.7038 323.738 16.7713 323.532 16.7713ZM326.779 15.7273V23H325.494V15.7273H326.779ZM329.671 23.1101C329.325 23.1101 329.014 23.0485 328.737 22.9254C328.462 22.8 328.244 22.6153 328.083 22.3714C327.925 22.1276 327.845 21.8269 327.845 21.4695C327.845 21.1617 327.902 20.9072 328.016 20.706C328.129 20.5047 328.284 20.3438 328.481 20.223C328.677 20.1023 328.899 20.0111 329.145 19.9496C329.394 19.8857 329.65 19.8395 329.916 19.8111C330.235 19.7779 330.494 19.7483 330.693 19.7223C330.892 19.6939 331.037 19.6513 331.127 19.5945C331.219 19.5353 331.265 19.4441 331.265 19.321V19.2997C331.265 19.0322 331.186 18.825 331.027 18.6783C330.868 18.5315 330.64 18.4581 330.342 18.4581C330.027 18.4581 329.777 18.5268 329.592 18.6641C329.41 18.8014 329.287 18.9635 329.223 19.1506L328.023 18.9801C328.118 18.6487 328.274 18.3717 328.492 18.1491C328.709 17.9242 328.976 17.7562 329.291 17.6449C329.605 17.5312 329.953 17.4744 330.335 17.4744C330.597 17.4744 330.859 17.5052 331.119 17.5668C331.38 17.6283 331.618 17.7301 331.833 17.8722C332.049 18.0118 332.221 18.2024 332.352 18.4439C332.484 18.6854 332.551 18.9872 332.551 19.3494V23H331.315V22.2507H331.272C331.194 22.4022 331.084 22.5443 330.942 22.6768C330.802 22.8071 330.626 22.9124 330.413 22.9929C330.202 23.071 329.955 23.1101 329.671 23.1101ZM330.004 22.1655C330.262 22.1655 330.486 22.1146 330.676 22.0128C330.865 21.9086 331.011 21.7713 331.112 21.6009C331.216 21.4304 331.269 21.2446 331.269 21.0433V20.4006C331.228 20.4337 331.16 20.4645 331.063 20.4929C330.968 20.5213 330.861 20.5462 330.743 20.5675C330.625 20.5888 330.507 20.6077 330.391 20.6243C330.275 20.6409 330.175 20.6551 330.09 20.6669C329.898 20.6929 329.726 20.7356 329.575 20.7947C329.423 20.8539 329.304 20.9368 329.216 21.0433C329.128 21.1475 329.085 21.2824 329.085 21.4482C329.085 21.6849 329.171 21.8636 329.344 21.9844C329.517 22.1051 329.737 22.1655 330.004 22.1655ZM333.9 23V15.7273H335.185V18.4474H335.239C335.305 18.3149 335.399 18.174 335.519 18.0249C335.64 17.8733 335.803 17.7443 336.009 17.6378C336.215 17.5289 336.478 17.4744 336.798 17.4744C337.219 17.4744 337.599 17.5821 337.938 17.7976C338.278 18.0107 338.548 18.3267 338.747 18.7457C338.948 19.1624 339.049 19.6738 339.049 20.2798C339.049 20.8788 338.951 21.3878 338.754 21.8068C338.558 22.2259 338.29 22.5455 337.952 22.7656C337.613 22.9858 337.23 23.0959 336.801 23.0959C336.489 23.0959 336.229 23.0438 336.024 22.9396C335.818 22.8355 335.652 22.71 335.526 22.5632C335.403 22.4141 335.307 22.2732 335.239 22.1406H335.164V23H333.9ZM335.161 20.2727C335.161 20.6255 335.21 20.9344 335.31 21.1996C335.412 21.4647 335.557 21.6719 335.747 21.821C335.938 21.9678 336.17 22.0412 336.443 22.0412C336.727 22.0412 336.965 21.9654 337.156 21.8139C337.348 21.66 337.493 21.4505 337.59 21.1854C337.689 20.9179 337.739 20.6136 337.739 20.2727C337.739 19.9342 337.69 19.6335 337.593 19.3707C337.496 19.108 337.352 18.902 337.16 18.7528C336.968 18.6037 336.729 18.5291 336.443 18.5291C336.168 18.5291 335.935 18.6013 335.743 18.7457C335.551 18.8902 335.406 19.0926 335.306 19.353C335.209 19.6134 335.161 19.92 335.161 20.2727ZM341.427 15.7273V23H340.142V15.7273H341.427ZM345.164 23.1065C344.617 23.1065 344.145 22.9929 343.747 22.7656C343.352 22.536 343.048 22.2116 342.835 21.7926C342.622 21.3712 342.515 20.8752 342.515 20.3047C342.515 19.7436 342.622 19.2512 342.835 18.8274C343.05 18.4013 343.351 18.0698 343.737 17.8331C344.122 17.594 344.576 17.4744 345.097 17.4744C345.433 17.4744 345.75 17.5289 346.048 17.6378C346.349 17.7443 346.614 17.91 346.844 18.1349C347.076 18.3598 347.258 18.6463 347.391 18.9943C347.523 19.34 347.59 19.7519 347.59 20.2301V20.6243H343.119V19.7578H346.357C346.355 19.5116 346.302 19.2926 346.198 19.1009C346.093 18.9067 345.948 18.754 345.761 18.6428C345.576 18.5315 345.361 18.4759 345.114 18.4759C344.852 18.4759 344.621 18.5398 344.422 18.6676C344.223 18.7931 344.068 18.9588 343.957 19.1648C343.848 19.3684 343.792 19.5921 343.79 19.8359V20.5923C343.79 20.9096 343.848 21.1818 343.964 21.4091C344.08 21.634 344.242 21.8068 344.45 21.9276C344.659 22.0459 344.903 22.1051 345.182 22.1051C345.369 22.1051 345.538 22.0791 345.69 22.027C345.841 21.9725 345.973 21.8932 346.084 21.7891C346.195 21.6849 346.279 21.5559 346.336 21.402L347.536 21.5369C347.461 21.8542 347.316 22.1312 347.103 22.3679C346.892 22.6023 346.622 22.7846 346.293 22.9148C345.964 23.0426 345.588 23.1065 345.164 23.1065ZM353.537 23.1065C353.004 23.1065 352.543 22.9893 352.152 22.755C351.761 22.5206 351.458 22.1927 351.243 21.7713C351.03 21.3499 350.923 20.8575 350.923 20.294C350.923 19.7306 351.03 19.237 351.243 18.8132C351.458 18.3894 351.761 18.0604 352.152 17.826C352.543 17.5916 353.004 17.4744 353.537 17.4744C354.07 17.4744 354.531 17.5916 354.922 17.826C355.312 18.0604 355.614 18.3894 355.827 18.8132C356.043 19.237 356.15 19.7306 356.15 20.294C356.15 20.8575 356.043 21.3499 355.827 21.7713C355.614 22.1927 355.312 22.5206 354.922 22.755C354.531 22.9893 354.07 23.1065 353.537 23.1065ZM353.544 22.0767C353.833 22.0767 354.074 21.9974 354.268 21.8388C354.463 21.6778 354.607 21.4624 354.702 21.1925C354.799 20.9226 354.847 20.6219 354.847 20.2905C354.847 19.9567 354.799 19.6548 354.702 19.3849C354.607 19.1127 354.463 18.8961 354.268 18.7351C354.074 18.5741 353.833 18.4936 353.544 18.4936C353.248 18.4936 353.002 18.5741 352.805 18.7351C352.611 18.8961 352.466 19.1127 352.369 19.3849C352.274 19.6548 352.226 19.9567 352.226 20.2905C352.226 20.6219 352.274 20.9226 352.369 21.1925C352.466 21.4624 352.611 21.6778 352.805 21.8388C353.002 21.9974 353.248 22.0767 353.544 22.0767ZM358.527 19.804V23H357.242V17.5455H358.47V18.4723H358.534C358.66 18.1669 358.86 17.9242 359.134 17.7443C359.411 17.5644 359.753 17.4744 360.161 17.4744C360.537 17.4744 360.865 17.5549 361.144 17.7159C361.426 17.8769 361.644 18.1101 361.798 18.4155C361.954 18.7209 362.031 19.0914 362.028 19.527V23H360.743V19.7259C360.743 19.3613 360.648 19.076 360.459 18.87C360.272 18.6641 360.013 18.5611 359.681 18.5611C359.456 18.5611 359.256 18.6108 359.081 18.7102C358.908 18.8073 358.772 18.9482 358.673 19.1328C358.576 19.3175 358.527 19.5412 358.527 19.804Z" fill="#E1D4C9"/>
<path d="M312.943 38.0795C312.848 37.7727 312.718 37.4981 312.551 37.2557C312.388 37.0095 312.191 36.7992 311.96 36.625C311.733 36.4508 311.472 36.3201 311.176 36.233C310.881 36.142 310.559 36.0966 310.21 36.0966C309.585 36.0966 309.028 36.2538 308.54 36.5682C308.051 36.8826 307.667 37.3447 307.386 37.9545C307.11 38.5606 306.972 39.2992 306.972 40.1705C306.972 41.0492 307.11 41.7936 307.386 42.4034C307.663 43.0133 308.047 43.4773 308.54 43.7955C309.032 44.1098 309.604 44.267 310.256 44.267C310.847 44.267 311.358 44.1534 311.79 43.9261C312.225 43.6989 312.561 43.3769 312.795 42.9602C313.03 42.5398 313.148 42.0473 313.148 41.483L313.625 41.5568H310.466V39.9091H315.188V41.3068C315.188 42.303 314.975 43.1648 314.551 43.892C314.127 44.6193 313.544 45.1799 312.801 45.5739C312.059 45.964 311.206 46.1591 310.244 46.1591C309.172 46.1591 308.231 45.9186 307.42 45.4375C306.614 44.9527 305.983 44.2652 305.528 43.375C305.078 42.4811 304.852 41.4205 304.852 40.1932C304.852 39.2538 304.985 38.4148 305.25 37.6761C305.519 36.9375 305.894 36.3106 306.375 35.7955C306.856 35.2765 307.42 34.8826 308.068 34.6136C308.716 34.3409 309.42 34.2045 310.182 34.2045C310.826 34.2045 311.426 34.2992 311.983 34.4886C312.54 34.6742 313.034 34.9394 313.466 35.2841C313.902 35.6288 314.259 36.0379 314.54 36.5114C314.82 36.9848 315.004 37.5076 315.091 38.0795H312.943ZM320.942 46.1705C320.089 46.1705 319.351 45.983 318.726 45.608C318.101 45.233 317.616 44.7083 317.271 44.0341C316.93 43.3598 316.76 42.572 316.76 41.6705C316.76 40.7689 316.93 39.9792 317.271 39.3011C317.616 38.6231 318.101 38.0966 318.726 37.7216C319.351 37.3466 320.089 37.1591 320.942 37.1591C321.794 37.1591 322.533 37.3466 323.158 37.7216C323.783 38.0966 324.266 38.6231 324.607 39.3011C324.951 39.9792 325.124 40.7689 325.124 41.6705C325.124 42.572 324.951 43.3598 324.607 44.0341C324.266 44.7083 323.783 45.233 323.158 45.608C322.533 45.983 321.794 46.1705 320.942 46.1705ZM320.953 44.5227C321.415 44.5227 321.802 44.3958 322.112 44.142C322.423 43.8845 322.654 43.5398 322.805 43.108C322.961 42.6761 323.038 42.1951 323.038 41.6648C323.038 41.1307 322.961 40.6477 322.805 40.2159C322.654 39.7803 322.423 39.4337 322.112 39.1761C321.802 38.9186 321.415 38.7898 320.953 38.7898C320.48 38.7898 320.086 38.9186 319.771 39.1761C319.461 39.4337 319.228 39.7803 319.072 40.2159C318.921 40.6477 318.845 41.1307 318.845 41.6648C318.845 42.1951 318.921 42.6761 319.072 43.108C319.228 43.5398 319.461 43.8845 319.771 44.142C320.086 44.3958 320.48 44.5227 320.953 44.5227ZM330.676 46.1705C329.824 46.1705 329.085 45.983 328.46 45.608C327.835 45.233 327.35 44.7083 327.006 44.0341C326.665 43.3598 326.494 42.572 326.494 41.6705C326.494 40.7689 326.665 39.9792 327.006 39.3011C327.35 38.6231 327.835 38.0966 328.46 37.7216C329.085 37.3466 329.824 37.1591 330.676 37.1591C331.528 37.1591 332.267 37.3466 332.892 37.7216C333.517 38.0966 334 38.6231 334.341 39.3011C334.686 39.9792 334.858 40.7689 334.858 41.6705C334.858 42.572 334.686 43.3598 334.341 44.0341C334 44.7083 333.517 45.233 332.892 45.608C332.267 45.983 331.528 46.1705 330.676 46.1705ZM330.688 44.5227C331.15 44.5227 331.536 44.3958 331.847 44.142C332.157 43.8845 332.388 43.5398 332.54 43.108C332.695 42.6761 332.773 42.1951 332.773 41.6648C332.773 41.1307 332.695 40.6477 332.54 40.2159C332.388 39.7803 332.157 39.4337 331.847 39.1761C331.536 38.9186 331.15 38.7898 330.688 38.7898C330.214 38.7898 329.82 38.9186 329.506 39.1761C329.195 39.4337 328.962 39.7803 328.807 40.2159C328.655 40.6477 328.58 41.1307 328.58 41.6648C328.58 42.1951 328.655 42.6761 328.807 43.108C328.962 43.5398 329.195 43.8845 329.506 44.142C329.82 44.3958 330.214 44.5227 330.688 44.5227ZM340.399 49.4545C339.661 49.4545 339.026 49.3542 338.496 49.1534C337.965 48.9564 337.539 48.6913 337.217 48.358C336.895 48.0246 336.672 47.6553 336.547 47.25L338.399 46.8011C338.482 46.9716 338.604 47.1402 338.763 47.3068C338.922 47.4773 339.136 47.6174 339.405 47.7273C339.678 47.8409 340.02 47.8977 340.433 47.8977C341.017 47.8977 341.5 47.7557 341.882 47.4716C342.265 47.1913 342.456 46.7292 342.456 46.0852V44.4318H342.354C342.248 44.6439 342.092 44.8617 341.888 45.0852C341.687 45.3087 341.42 45.4962 341.087 45.6477C340.757 45.7992 340.342 45.875 339.842 45.875C339.172 45.875 338.564 45.7178 338.018 45.4034C337.477 45.0852 337.045 44.6117 336.723 43.983C336.405 43.3504 336.246 42.5587 336.246 41.608C336.246 40.6496 336.405 39.8409 336.723 39.1818C337.045 38.5189 337.479 38.017 338.024 37.6761C338.57 37.3314 339.178 37.1591 339.848 37.1591C340.359 37.1591 340.78 37.2462 341.109 37.4205C341.443 37.5909 341.708 37.7973 341.905 38.0398C342.102 38.2784 342.251 38.5038 342.354 38.7159H342.467V37.2727H344.496V46.142C344.496 46.8883 344.318 47.5057 343.962 47.9943C343.606 48.483 343.119 48.8485 342.501 49.0909C341.884 49.3333 341.183 49.4545 340.399 49.4545ZM340.416 44.2614C340.852 44.2614 341.223 44.1553 341.53 43.9432C341.837 43.7311 342.07 43.4261 342.229 43.0284C342.388 42.6307 342.467 42.1534 342.467 41.5966C342.467 41.0473 342.388 40.5663 342.229 40.1534C342.073 39.7405 341.842 39.4205 341.536 39.1932C341.232 38.9621 340.859 38.8466 340.416 38.8466C339.958 38.8466 339.575 38.9659 339.268 39.2045C338.962 39.4432 338.731 39.7708 338.575 40.1875C338.42 40.6004 338.342 41.0701 338.342 41.5966C338.342 42.1307 338.42 42.5985 338.575 43C338.734 43.3977 338.967 43.7083 339.274 43.9318C339.585 44.1515 339.965 44.2614 340.416 44.2614ZM348.661 34.3636V46H346.604V34.3636H348.661ZM354.639 46.1705C353.764 46.1705 353.009 45.9886 352.372 45.625C351.74 45.2576 351.253 44.7386 350.912 44.0682C350.571 43.3939 350.401 42.6004 350.401 41.6875C350.401 40.7898 350.571 40.0019 350.912 39.3239C351.257 38.642 351.738 38.1117 352.355 37.733C352.973 37.3504 353.698 37.1591 354.531 37.1591C355.069 37.1591 355.577 37.2462 356.054 37.4205C356.535 37.5909 356.959 37.8561 357.327 38.2159C357.698 38.5758 357.99 39.0341 358.202 39.5909C358.414 40.1439 358.52 40.803 358.52 41.5682V42.1989H351.366V40.8125H356.548C356.545 40.4186 356.459 40.0682 356.293 39.7614C356.126 39.4508 355.893 39.2064 355.594 39.0284C355.298 38.8504 354.954 38.7614 354.56 38.7614C354.139 38.7614 353.77 38.8636 353.452 39.0682C353.134 39.2689 352.885 39.5341 352.707 39.8636C352.533 40.1894 352.444 40.5473 352.44 40.9375V42.1477C352.44 42.6553 352.533 43.0909 352.719 43.4545C352.904 43.8144 353.164 44.0909 353.497 44.2841C353.83 44.4735 354.221 44.5682 354.668 44.5682C354.967 44.5682 355.238 44.5265 355.48 44.4432C355.723 44.3561 355.933 44.2292 356.111 44.0625C356.289 43.8958 356.423 43.6894 356.514 43.4432L358.435 43.6591C358.313 44.1667 358.082 44.6098 357.741 44.9886C357.404 45.3636 356.973 45.6553 356.446 45.8636C355.92 46.0682 355.317 46.1705 354.639 46.1705ZM364.32 46V34.3636H368.683C369.577 34.3636 370.327 34.5303 370.933 34.8636C371.543 35.197 372.003 35.6553 372.314 36.2386C372.628 36.8182 372.786 37.4773 372.786 38.2159C372.786 38.9621 372.628 39.625 372.314 40.2045C372 40.7841 371.536 41.2405 370.922 41.5739C370.308 41.9034 369.553 42.0682 368.655 42.0682H365.763V40.3352H368.371C368.893 40.3352 369.321 40.2443 369.655 40.0625C369.988 39.8807 370.234 39.6307 370.393 39.3125C370.556 38.9943 370.638 38.6288 370.638 38.2159C370.638 37.803 370.556 37.4394 370.393 37.125C370.234 36.8106 369.986 36.5663 369.649 36.392C369.316 36.214 368.886 36.125 368.359 36.125H366.428V46H364.32ZM376.582 34.3636V46H374.526V34.3636H376.582ZM381.209 46.1761C380.656 46.1761 380.158 46.0777 379.714 45.8807C379.275 45.6799 378.927 45.3845 378.669 44.9943C378.415 44.6042 378.288 44.1231 378.288 43.5511C378.288 43.0587 378.379 42.6515 378.561 42.3295C378.743 42.0076 378.991 41.75 379.305 41.5568C379.62 41.3636 379.974 41.2178 380.368 41.1193C380.766 41.017 381.177 40.9432 381.601 40.8977C382.112 40.8447 382.527 40.7973 382.845 40.7557C383.163 40.7102 383.394 40.642 383.538 40.5511C383.686 40.4564 383.76 40.3106 383.76 40.1136V40.0795C383.76 39.6515 383.633 39.3201 383.379 39.0852C383.125 38.8504 382.76 38.733 382.283 38.733C381.779 38.733 381.379 38.8428 381.084 39.0625C380.792 39.2822 380.595 39.5417 380.493 39.8409L378.572 39.5682C378.724 39.0379 378.974 38.5947 379.322 38.2386C379.671 37.8788 380.097 37.6098 380.601 37.4318C381.105 37.25 381.661 37.1591 382.271 37.1591C382.692 37.1591 383.11 37.2083 383.527 37.3068C383.944 37.4053 384.324 37.5682 384.669 37.7955C385.014 38.0189 385.29 38.3239 385.499 38.7102C385.711 39.0966 385.817 39.5795 385.817 40.1591V46H383.839V44.8011H383.771C383.646 45.0436 383.47 45.2708 383.243 45.483C383.019 45.6913 382.737 45.8598 382.396 45.9886C382.059 46.1136 381.663 46.1761 381.209 46.1761ZM381.743 44.6648C382.156 44.6648 382.514 44.5833 382.817 44.4205C383.12 44.2538 383.353 44.0341 383.516 43.7614C383.682 43.4886 383.766 43.1913 383.766 42.8693V41.8409C383.701 41.8939 383.591 41.9432 383.436 41.9886C383.285 42.0341 383.114 42.0739 382.925 42.108C382.735 42.142 382.548 42.1723 382.362 42.1989C382.177 42.2254 382.016 42.2481 381.879 42.267C381.572 42.3087 381.298 42.3769 381.055 42.4716C380.813 42.5663 380.622 42.6989 380.482 42.8693C380.341 43.036 380.271 43.2519 380.271 43.517C380.271 43.8958 380.41 44.1818 380.686 44.375C380.963 44.5682 381.315 44.6648 381.743 44.6648ZM388.851 49.2727C388.571 49.2727 388.311 49.25 388.072 49.2045C387.838 49.1629 387.65 49.1136 387.51 49.0568L387.987 47.4545C388.286 47.5417 388.554 47.5833 388.788 47.5795C389.023 47.5758 389.23 47.5019 389.408 47.358C389.589 47.2178 389.743 46.983 389.868 46.6534L390.044 46.1818L386.879 37.2727H389.061L391.072 43.8636H391.163L393.18 37.2727H395.368L391.874 47.0568C391.711 47.5189 391.495 47.9148 391.226 48.2443C390.957 48.5777 390.627 48.8314 390.237 49.0057C389.851 49.1837 389.389 49.2727 388.851 49.2727Z" fill="#E1D4C9"/>
</g>
<defs>
<clipPath id="clip0_110_1724">
<rect width="440" height="64" fill="white"/>
</clipPath>
</defs>
</svg>
