<svg width="182" height="28" viewBox="0 0 182 28" fill="none" xmlns="http://www.w3.org/2000/svg">
<g clip-path="url(#clip0_48_951)">
<path d="M1.14773 18V6.36364H3.25568V16.233H8.38068V18H1.14773ZM10.1193 18V9.27273H12.1761V18H10.1193ZM11.1534 8.03409C10.8277 8.03409 10.5473 7.92614 10.3125 7.71023C10.0777 7.49053 9.96023 7.22727 9.96023 6.92045C9.96023 6.60985 10.0777 6.34659 10.3125 6.13068C10.5473 5.91098 10.8277 5.80114 11.1534 5.80114C11.483 5.80114 11.7633 5.91098 11.9943 6.13068C12.2292 6.34659 12.3466 6.60985 12.3466 6.92045C12.3466 7.22727 12.2292 7.49053 11.9943 7.71023C11.7633 7.92614 11.483 8.03409 11.1534 8.03409ZM16.348 12.8864V18H14.2912V9.27273H16.2571V10.7557H16.3594C16.5601 10.267 16.8802 9.87879 17.3196 9.59091C17.7628 9.30303 18.3101 9.15909 18.9616 9.15909C19.5639 9.15909 20.0885 9.28788 20.5355 9.54545C20.9863 9.80303 21.3348 10.1761 21.581 10.6648C21.831 11.1534 21.9541 11.7462 21.9503 12.4432V18H19.8935V12.7614C19.8935 12.178 19.742 11.7216 19.4389 11.392C19.1397 11.0625 18.7249 10.8977 18.1946 10.8977C17.8348 10.8977 17.5147 10.9773 17.2344 11.1364C16.9579 11.2917 16.7401 11.517 16.581 11.8125C16.4257 12.108 16.348 12.4659 16.348 12.8864ZM25.9162 15.2614L25.9105 12.7784H26.2401L29.3764 9.27273H31.7798L27.9219 13.5682H27.4957L25.9162 15.2614ZM24.0412 18V6.36364H26.098V18H24.0412ZM29.5185 18L26.6776 14.0284L28.0639 12.5795L31.9787 18H29.5185Z" fill="#403F3D"/>
<path d="M55.166 9.76667V11.6667C55.166 14.8883 52.5543 17.5 49.3327 17.5C46.111 17.5 43.4993 14.8883 43.4993 11.6667V9.76667C43.4993 9.4353 43.768 9.16667 44.0993 9.16667H54.566C54.8974 9.16667 55.166 9.4353 55.166 9.76667Z" stroke="#403F3D" stroke-width="1.5" stroke-linecap="round" stroke-linejoin="round"/>
<path d="M50.9993 7.49996C50.9993 6.66663 51.5946 5.83329 52.7851 5.83329V5.83329C54.1 5.83329 55.166 4.7673 55.166 3.45234V2.91663" stroke="#403F3D" stroke-width="1.5" stroke-linecap="round" stroke-linejoin="round"/>
<path d="M47.6673 7.5V7.08333C47.6673 5.70262 48.7866 4.58333 50.1673 4.58333V4.58333C51.0878 4.58333 51.834 3.83714 51.834 2.91667V2.5" stroke="#403F3D" stroke-width="1.5" stroke-linecap="round" stroke-linejoin="round"/>
<path d="M54.334 9.16663H56.4173C57.5679 9.16663 58.5007 10.0994 58.5007 11.25C58.5007 12.4006 57.5679 13.3333 56.4173 13.3333H55.1673" stroke="#403F3D" stroke-width="1.5" stroke-linecap="round" stroke-linejoin="round"/>
<path d="M122.148 18V6.36364H124.256V16.233H129.381V18H122.148ZM131.119 18V9.27273H133.176V18H131.119ZM132.153 8.03409C131.828 8.03409 131.547 7.92614 131.312 7.71023C131.078 7.49053 130.96 7.22727 130.96 6.92045C130.96 6.60985 131.078 6.34659 131.312 6.13068C131.547 5.91098 131.828 5.80114 132.153 5.80114C132.483 5.80114 132.763 5.91098 132.994 6.13068C133.229 6.34659 133.347 6.60985 133.347 6.92045C133.347 7.22727 133.229 7.49053 132.994 7.71023C132.763 7.92614 132.483 8.03409 132.153 8.03409ZM137.348 12.8864V18H135.291V9.27273H137.257V10.7557H137.359C137.56 10.267 137.88 9.87879 138.32 9.59091C138.763 9.30303 139.31 9.15909 139.962 9.15909C140.564 9.15909 141.089 9.28788 141.536 9.54545C141.986 9.80303 142.335 10.1761 142.581 10.6648C142.831 11.1534 142.954 11.7462 142.95 12.4432V18H140.893V12.7614C140.893 12.178 140.742 11.7216 140.439 11.392C140.14 11.0625 139.725 10.8977 139.195 10.8977C138.835 10.8977 138.515 10.9773 138.234 11.1364C137.958 11.2917 137.74 11.517 137.581 11.8125C137.426 12.108 137.348 12.4659 137.348 12.8864ZM146.916 15.2614L146.911 12.7784H147.24L150.376 9.27273H152.78L148.922 13.5682H148.496L146.916 15.2614ZM145.041 18V6.36364H147.098V18H145.041ZM150.518 18L147.678 14.0284L149.064 12.5795L152.979 18H150.518Z" fill="#403F3D"/>
<path d="M176.166 9.76667V11.6667C176.166 14.8883 173.554 17.5 170.333 17.5C167.111 17.5 164.499 14.8883 164.499 11.6667V9.76667C164.499 9.4353 164.768 9.16667 165.099 9.16667H175.566C175.897 9.16667 176.166 9.4353 176.166 9.76667Z" stroke="#403F3D" stroke-width="1.5" stroke-linecap="round" stroke-linejoin="round"/>
<path d="M171.999 7.49996C171.999 6.66663 172.595 5.83329 173.785 5.83329V5.83329C175.1 5.83329 176.166 4.7673 176.166 3.45234V2.91663" stroke="#403F3D" stroke-width="1.5" stroke-linecap="round" stroke-linejoin="round"/>
<path d="M168.667 7.5V7.08333C168.667 5.70262 169.787 4.58333 171.167 4.58333V4.58333C172.088 4.58333 172.834 3.83714 172.834 2.91667V2.5" stroke="#403F3D" stroke-width="1.5" stroke-linecap="round" stroke-linejoin="round"/>
<path d="M175.334 9.16663H177.417C178.568 9.16663 179.501 10.0994 179.501 11.25C179.501 12.4006 178.568 13.3333 177.417 13.3333H176.167" stroke="#403F3D" stroke-width="1.5" stroke-linecap="round" stroke-linejoin="round"/>
<line x1="121" y1="27" x2="182" y2="27" stroke="#403F3D" stroke-width="2"/>
</g>
<defs>
<clipPath id="clip0_48_951">
<rect width="182" height="28" fill="white"/>
</clipPath>
</defs>
</svg>
